<svg width="21" height="22" viewBox="0 0 21 22" fill="none" xmlns="http://www.w3.org/2000/svg">
<path d="M2 6L0.5 8.5L1 13.5L5.5 19.5H6.5L7.5 20H13L14 19.5H15.5L19 15L20 13V8L19 7V5.5L16 2.5L13 1H7.5L2 5V6Z" fill="#FFFF00"/>
<path d="M2 6L0.5 8.5L1 13.5L5.5 19.5H6.5L7.5 20H13L14 19.5H15.5L19 15L20 13V8L19 7V5.5L16 2.5L13 1H7.5L2 5V6Z" fill="#FFFF00"/>
<path d="M3.67555 3.73877H2.4502V4.98502H3.67555V3.73877Z" fill="black"/>
<path d="M18.3794 3.73877H17.1541V4.98502H18.3794V3.73877Z" fill="black"/>
<path d="M4.9009 2.49243H3.67554V3.73868H4.9009V2.49243Z" fill="black"/>
<path d="M17.1541 2.49243H15.9287V3.73868H17.1541V2.49243Z" fill="black"/>
<path d="M2.4507 4.98511H1.22534V6.23136H2.4507V4.98511Z" fill="black"/>
<path d="M2.4507 6.2312H1.22534V7.47745H2.4507V6.2312Z" fill="black"/>
<path d="M19.6048 4.98511H18.3794V6.23136H19.6048V4.98511Z" fill="black"/>
<path d="M19.6048 6.2312H18.3794V7.47745H19.6048V6.2312Z" fill="black"/>
<path d="M1.22536 7.47705H0V8.7233H1.22536V7.47705Z" fill="black"/>
<path d="M1.22536 8.72339H0V9.96964H1.22536V8.72339Z" fill="black"/>
<path d="M1.22536 9.96948H0V11.2157H1.22536V9.96948Z" fill="black"/>
<path d="M1.22536 11.2158H0V12.4621H1.22536V11.2158Z" fill="black"/>
<path d="M1.22536 12.4619H0V13.7082H1.22536V12.4619Z" fill="black"/>
<path d="M20.8301 7.47705H19.6047V8.7233H20.8301V7.47705Z" fill="black"/>
<path d="M20.8301 8.72339H19.6047V9.96964H20.8301V8.72339Z" fill="black"/>
<path d="M20.8301 9.96948H19.6047V11.2157H20.8301V9.96948Z" fill="black"/>
<path d="M20.8301 11.2158H19.6047V12.4621H20.8301V11.2158Z" fill="black"/>
<path d="M20.8301 12.4619H19.6047V13.7082H20.8301V12.4619Z" fill="black"/>
<path d="M7.35205 19.9395V21.1858H8.57741V19.9395H7.35205Z" fill="black"/>
<path d="M8.57715 19.9395V21.1858H9.80251V19.9395H8.57715Z" fill="black"/>
<path d="M9.80249 19.9391V21.1853H11.0278V19.9391H9.80249Z" fill="black"/>
<path d="M11.0278 19.9391V21.1853H12.2532V19.9391H11.0278Z" fill="black"/>
<path d="M12.2532 19.9391V21.1853H13.4785V19.9391H12.2532Z" fill="black"/>
<path d="M13.45 15.1962V13.95H12.2246V14.5731V15.1962H13.45Z" fill="black"/>
<path d="M8.57007 15.1962V13.95H7.34471V14.5731V15.1962H8.57007Z" fill="black"/>
<path d="M12.25 13.9462V12.7H11.0246V13.3231V13.9462H12.25Z" fill="black"/>
<path d="M13.45 13.9462V12.7H12.2246V13.9462H13.45Z" fill="black" fill-opacity="0.5"/>
<path d="M12.2532 12.7082V11.4619H11.0278V12.7082H12.2532Z" fill="black"/>
<path d="M11.0278 12.7082V11.4619H9.80247V12.7082H11.0278Z" fill="black"/>
<path d="M9.80249 12.7082V11.4619H8.57713V12.7082H9.80249Z" fill="black"/>
<path d="M9.80005 13.9462V12.7H8.57469V13.9462H9.80005Z" fill="black"/>
<path d="M8.57007 13.9462V12.7H7.34471V13.9462H8.57007Z" fill="black" fill-opacity="0.5"/>
<path d="M12.2454 15.1956V16.4419H11.02V15.8188V15.1956H12.2454Z" fill="black"/>
<path d="M13.4453 15.1956V16.4419H12.22V15.1956H13.4453Z" fill="black" fill-opacity="0.5"/>
<path d="M12.2485 16.4337V17.6799H11.0232V16.4337H12.2485Z" fill="black"/>
<path d="M11.0232 16.4337V17.6799H9.79783V16.4337H11.0232Z" fill="black"/>
<path d="M9.79785 16.4337V17.6799H8.57249V16.4337H9.79785Z" fill="black"/>
<path d="M9.79541 15.1956V16.4419H8.57005V15.1956H9.79541Z" fill="black"/>
<path d="M8.56543 15.1956V16.4419H7.34007V15.1956H8.56543Z" fill="black" fill-opacity="0.5"/>
<path d="M7.35181 9.15527e-05V1.24634H8.57717V9.15527e-05H7.35181Z" fill="black"/>
<path d="M8.57715 8.57115e-05V1.24634H9.80251V8.57115e-05H8.57715Z" fill="black"/>
<path d="M9.80249 8.57115e-05V1.24634H11.0278V8.57115e-05H9.80249Z" fill="black"/>
<path d="M11.0278 9.15527e-05V1.24634H12.2532V9.15527e-05H11.0278Z" fill="black"/>
<path d="M12.2532 8.57115e-05V1.24634H13.4785V8.57115e-05H12.2532Z" fill="black"/>
<path d="M2.4507 13.7083H1.22534V14.9545H2.4507V13.7083Z" fill="black"/>
<path d="M2.4507 14.9546H1.22534V16.2008H2.4507V14.9546Z" fill="black"/>
<path d="M19.6048 13.7083H18.3794V14.9545H19.6048V13.7083Z" fill="black"/>
<path d="M19.6048 14.9546H18.3794V16.2008H19.6048V14.9546Z" fill="black"/>
<path d="M3.67555 16.2007H2.4502V17.4469H3.67555V16.2007Z" fill="black"/>
<path d="M4.9009 17.447H3.67554V18.6933H4.9009V17.447Z" fill="black"/>
<path d="M18.3794 16.2007H17.1541V17.4469H18.3794V16.2007Z" fill="black"/>
<path d="M17.1541 17.447H15.9287V18.6933H17.1541V17.447Z" fill="black"/>
<path d="M6.12624 18.6934H4.90088V19.9396H6.12624V18.6934Z" fill="black"/>
<path d="M7.35183 18.6934H6.12646V19.9396H7.35183V18.6934Z" fill="black"/>
<path d="M14.7039 18.6934H13.4785V19.9396H14.7039V18.6934Z" fill="black"/>
<path d="M15.9292 18.6934H14.7039V19.9396H15.9292V18.6934Z" fill="black"/>
<path d="M6.12624 1.24634H4.90088V2.49259H6.12624V1.24634Z" fill="black"/>
<path d="M7.35183 1.24634H6.12646V2.49259H7.35183V1.24634Z" fill="black"/>
<path d="M14.7039 1.24634H13.4785V2.49259H14.7039V1.24634Z" fill="black"/>
<path d="M15.9292 1.24634H14.7039V2.49259H15.9292V1.24634Z" fill="black"/>
<path d="M7.35183 6.2312H6.12646V7.47745H7.35183V6.2312Z" fill="black"/>
<path d="M6.22536 6.22998H5V7.47623H6.22536V6.22998Z" fill="black"/>
<path d="M7.35524 7.47705H6.12988V8.7233H7.35524V7.47705Z" fill="black"/>
<path d="M7.35524 5H6.12988V6.24625H7.35524V5Z" fill="black"/>
<path d="M8.52541 5H7.30005V6.24625H8.52541V5Z" fill="black" fill-opacity="0.5"/>
<path d="M6.22536 7.47998H5V8.72623H6.22536V7.47998Z" fill="black" fill-opacity="0.5"/>
<path d="M8.52541 7.47998H7.30005V8.72623H8.52541V7.47998Z" fill="black" fill-opacity="0.5"/>
<path d="M6.22536 5H5V6.24625H6.22536V5Z" fill="black" fill-opacity="0.5"/>
<path d="M8.52541 6.22998H7.30005V7.47623H8.52541V6.22998Z" fill="black"/>
<path d="M14.5518 6.2312H13.3264V7.47745H14.5518V6.2312Z" fill="black"/>
<path d="M13.4253 6.22998H12.2V7.47623H13.4253V6.22998Z" fill="black"/>
<path d="M14.5552 7.47705H13.3298V8.7233H14.5552V7.47705Z" fill="black"/>
<path d="M14.5552 5H13.3298V6.24625H14.5552V5Z" fill="black"/>
<path d="M15.7254 5H14.5V6.24625H15.7254V5Z" fill="black" fill-opacity="0.5"/>
<path d="M13.4253 7.47998H12.2V8.72623H13.4253V7.47998Z" fill="black" fill-opacity="0.5"/>
<path d="M15.7254 7.47998H14.5V8.72623H15.7254V7.47998Z" fill="black" fill-opacity="0.5"/>
<path d="M13.4253 5H12.2V6.24625H13.4253V5Z" fill="black" fill-opacity="0.5"/>
<path d="M15.7254 6.22998H14.5V7.47623H15.7254V6.22998Z" fill="black"/>
</svg>
