<svg width="16" height="16" viewBox="0 0 16 16" fill="none" xmlns="http://www.w3.org/2000/svg">
<g clip-path="url(#clip0_283_6246)">
<rect width="1" height="1" transform="translate(5 5)" fill="black"/>
</g>
<g clip-path="url(#clip1_283_6246)">
<rect width="1" height="1" transform="translate(6 5)" fill="black"/>
</g>
<g clip-path="url(#clip2_283_6246)">
<rect width="1" height="1" transform="translate(6 4)" fill="black"/>
</g>
<g clip-path="url(#clip3_283_6246)">
<rect width="1" height="1" transform="translate(6 3)" fill="black"/>
</g>
<g clip-path="url(#clip4_283_6246)">
<rect width="1" height="1" transform="translate(7 3)" fill="black"/>
</g>
<g clip-path="url(#clip5_283_6246)">
<rect width="1" height="1" transform="translate(8 3)" fill="black"/>
</g>
<g clip-path="url(#clip6_283_6246)">
<rect width="1" height="1" transform="translate(9 3)" fill="black"/>
</g>
<g clip-path="url(#clip7_283_6246)">
<rect width="1" height="1" transform="translate(9 4)" fill="black"/>
</g>
<g clip-path="url(#clip8_283_6246)">
<rect width="1" height="1" transform="translate(10 4)" fill="black"/>
</g>
<g clip-path="url(#clip9_283_6246)">
<rect width="1" height="1" transform="translate(10 5)" fill="black"/>
</g>
<g clip-path="url(#clip10_283_6246)">
<rect width="1" height="1" transform="translate(9 5)" fill="black"/>
</g>
<g clip-path="url(#clip11_283_6246)">
<rect width="1" height="1" transform="translate(9 6)" fill="black"/>
</g>
<g clip-path="url(#clip12_283_6246)">
<rect width="1" height="1" transform="translate(9 7)" fill="black"/>
</g>
<g clip-path="url(#clip13_283_6246)">
<rect width="1" height="1" transform="translate(8 7)" fill="black"/>
</g>
<g clip-path="url(#clip14_283_6246)">
<rect width="1" height="1" transform="translate(8 8)" fill="black"/>
</g>
<g clip-path="url(#clip15_283_6246)">
<rect width="1" height="1" transform="translate(7 8)" fill="black"/>
</g>
<g clip-path="url(#clip16_283_6246)">
<rect width="1" height="1" transform="translate(7 9)" fill="black"/>
</g>
<rect width="1" height="1" transform="translate(7 11)" fill="black"/>
<rect width="1" height="1" transform="translate(8 11)" fill="black"/>
<rect width="1" height="1" transform="translate(8 12)" fill="black"/>
<rect width="1" height="1" transform="translate(7 12)" fill="black"/>
<g clip-path="url(#clip17_283_6246)">
<rect width="1" height="1" transform="translate(8 9)" fill="black"/>
</g>
<g clip-path="url(#clip18_283_6246)">
<rect width="1" height="1" transform="translate(10 6)" fill="black"/>
</g>
<g clip-path="url(#clip19_283_6246)">
<rect width="1" height="1" transform="translate(5 4)" fill="black"/>
</g>
<defs>
<clipPath id="clip0_283_6246">
<rect width="1" height="1" fill="white" transform="translate(5 5)"/>
</clipPath>
<clipPath id="clip1_283_6246">
<rect width="1" height="1" fill="white" transform="translate(6 5)"/>
</clipPath>
<clipPath id="clip2_283_6246">
<rect width="1" height="1" fill="white" transform="translate(6 4)"/>
</clipPath>
<clipPath id="clip3_283_6246">
<rect width="1" height="1" fill="white" transform="translate(6 3)"/>
</clipPath>
<clipPath id="clip4_283_6246">
<rect width="1" height="1" fill="white" transform="translate(7 3)"/>
</clipPath>
<clipPath id="clip5_283_6246">
<rect width="1" height="1" fill="white" transform="translate(8 3)"/>
</clipPath>
<clipPath id="clip6_283_6246">
<rect width="1" height="1" fill="white" transform="translate(9 3)"/>
</clipPath>
<clipPath id="clip7_283_6246">
<rect width="1" height="1" fill="white" transform="translate(9 4)"/>
</clipPath>
<clipPath id="clip8_283_6246">
<rect width="1" height="1" fill="white" transform="translate(10 4)"/>
</clipPath>
<clipPath id="clip9_283_6246">
<rect width="1" height="1" fill="white" transform="translate(10 5)"/>
</clipPath>
<clipPath id="clip10_283_6246">
<rect width="1" height="1" fill="white" transform="translate(9 5)"/>
</clipPath>
<clipPath id="clip11_283_6246">
<rect width="1" height="1" fill="white" transform="translate(9 6)"/>
</clipPath>
<clipPath id="clip12_283_6246">
<rect width="1" height="1" fill="white" transform="translate(9 7)"/>
</clipPath>
<clipPath id="clip13_283_6246">
<rect width="1" height="1" fill="white" transform="translate(8 7)"/>
</clipPath>
<clipPath id="clip14_283_6246">
<rect width="1" height="1" fill="white" transform="translate(8 8)"/>
</clipPath>
<clipPath id="clip15_283_6246">
<rect width="1" height="1" fill="white" transform="translate(7 8)"/>
</clipPath>
<clipPath id="clip16_283_6246">
<rect width="1" height="1" fill="white" transform="translate(7 9)"/>
</clipPath>
<clipPath id="clip17_283_6246">
<rect width="1" height="1" fill="white" transform="translate(8 9)"/>
</clipPath>
<clipPath id="clip18_283_6246">
<rect width="1" height="1" fill="white" transform="translate(10 6)"/>
</clipPath>
<clipPath id="clip19_283_6246">
<rect width="1" height="1" fill="white" transform="translate(5 4)"/>
</clipPath>
</defs>
</svg>
