<svg width="21" height="22" viewBox="0 0 21 22" fill="none" xmlns="http://www.w3.org/2000/svg">
<path d="M2 6L0.5 8.5L1 13.5L5.5 19.5H6.5L7.5 20H13L14 19.5H15.5L19 15L20 13V8L19 7V5.5L16 2.5L13 1H7.5L2 5V6Z" fill="#FFFF00"/>
<path d="M3.67604 3.73877H2.45068V4.98502H3.67604V3.73877Z" fill="black"/>
<path d="M18.3799 3.73877H17.1545V4.98502H18.3799V3.73877Z" fill="black"/>
<path d="M4.90138 2.49243H3.67603V3.73868H4.90138V2.49243Z" fill="black"/>
<path d="M7.35207 7.47754H6.12671V8.72379H7.35207V7.47754Z" fill="black"/>
<path d="M8.57692 7.47754H7.35156V8.72379H8.57692V7.47754Z" fill="black"/>
<path d="M7.35207 8.72363H6.12671V9.96988H7.35207V8.72363Z" fill="black"/>
<path d="M6.12673 8.72363H4.90137V9.96988H6.12673V8.72363Z" fill="black"/>
<path d="M6.12673 7.47754H4.90137V8.72379H6.12673V7.47754Z" fill="black"/>
<path d="M7.35207 6.2312H6.12671V7.47745H7.35207V6.2312Z" fill="black"/>
<path d="M8.57692 6.2312H7.35156V7.47745H8.57692V6.2312Z" fill="black"/>
<path d="M6.12673 6.2312H4.90137V7.47745H6.12673V6.2312Z" fill="black"/>
<path d="M4.90138 8.72363H3.67603V9.96988H4.90138V8.72363Z" fill="black"/>
<path d="M4.90138 7.47754H3.67603V8.72379H4.90138V7.47754Z" fill="black"/>
<path d="M3.67604 7.47754H2.45068V8.72379H3.67604V7.47754Z" fill="black"/>
<path d="M2.4507 8.72363H1.22534V9.96988H2.4507V8.72363Z" fill="black"/>
<path d="M19.6052 8.72363H18.3799V9.96988H19.6052V8.72363Z" fill="black"/>
<path d="M4.90138 6.2312H3.67603V7.47745H4.90138V6.2312Z" fill="black"/>
<path d="M15.9292 8.72363H14.7039V9.96988H15.9292V8.72363Z" fill="black"/>
<path d="M15.9292 7.47754H14.7039V8.72379H15.9292V7.47754Z" fill="black"/>
<path d="M15.9292 6.2312H14.7039V7.47745H15.9292V6.2312Z" fill="black"/>
<path d="M17.1546 8.72363H15.9292V9.96988H17.1546V8.72363Z" fill="black"/>
<path d="M17.1546 7.47754H15.9292V8.72379H17.1546V7.47754Z" fill="black"/>
<path d="M18.3799 7.47754H17.1545V8.72379H18.3799V7.47754Z" fill="black"/>
<path d="M17.1546 6.2312H15.9292V7.47745H17.1546V6.2312Z" fill="black"/>
<path d="M11.0278 6.2312H9.80249V7.47745H11.0278V6.2312Z" fill="black"/>
<path d="M12.2532 6.2312H11.0278V7.47745H12.2532V6.2312Z" fill="black"/>
<path d="M9.80251 6.2312H8.57715V7.47745H9.80251V6.2312Z" fill="black"/>
<path d="M14.7039 6.2312H13.4785V7.47745H14.7039V6.2312Z" fill="black"/>
<path d="M13.4785 6.2312H12.2532V7.47745H13.4785V6.2312Z" fill="black"/>
<path d="M8.57692 8.72363H7.35156V9.96988H8.57692V8.72363Z" fill="black"/>
<path d="M13.4785 7.47754H12.2532V8.72379H13.4785V7.47754Z" fill="black"/>
<path d="M14.7039 7.47754H13.4785V8.72379H14.7039V7.47754Z" fill="black"/>
<path d="M13.4785 8.72363H12.2532V9.96988H13.4785V8.72363Z" fill="black"/>
<path d="M14.7039 8.72363H13.4785V9.96988H14.7039V8.72363Z" fill="black"/>
<path d="M17.1546 2.49243H15.9292V3.73868H17.1546V2.49243Z" fill="black"/>
<path d="M2.4507 4.98511H1.22534V6.23136H2.4507V4.98511Z" fill="black"/>
<path d="M2.4507 6.2312H1.22534V7.47745H2.4507V6.2312Z" fill="black"/>
<path d="M19.6052 4.98511H18.3799V6.23136H19.6052V4.98511Z" fill="black"/>
<path d="M19.6052 6.2312H18.3799V7.47745H19.6052V6.2312Z" fill="black"/>
<path d="M1.22536 7.47754H0V8.72379H1.22536V7.47754Z" fill="black"/>
<path d="M1.22536 8.72363H0V9.96988H1.22536V8.72363Z" fill="black"/>
<path d="M1.22536 9.96997H0V11.2162H1.22536V9.96997Z" fill="black"/>
<path d="M1.22536 11.2163H0V12.4626H1.22536V11.2163Z" fill="black"/>
<path d="M1.22536 12.4624H0V13.7087H1.22536V12.4624Z" fill="black"/>
<path d="M20.8306 7.47754H19.6052V8.72379H20.8306V7.47754Z" fill="black"/>
<path d="M20.8306 8.72363H19.6052V9.96988H20.8306V8.72363Z" fill="black"/>
<path d="M20.8306 9.96997H19.6052V11.2162H20.8306V9.96997Z" fill="black"/>
<path d="M20.8306 11.2163H19.6052V12.4626H20.8306V11.2163Z" fill="black"/>
<path d="M20.8306 12.4624H19.6052V13.7087H20.8306V12.4624Z" fill="black"/>
<path d="M7.35156 19.9395V21.1858H8.57692V19.9395H7.35156Z" fill="black"/>
<path d="M8.57715 19.9395V21.1858H9.80251V19.9395H8.57715Z" fill="black"/>
<path d="M9.80249 19.9395V21.1858H11.0278V19.9395H9.80249Z" fill="black"/>
<path d="M11.0278 19.9395V21.1858H12.2532V19.9395H11.0278Z" fill="black"/>
<path d="M12.2532 19.9395V21.1858H13.4785V19.9395H12.2532Z" fill="black"/>
<path d="M7.35156 14.9549V16.2012H8.57692V14.9549H7.35156Z" fill="black"/>
<path d="M8.57715 14.9549V16.2012H9.80251V14.9549H8.57715Z" fill="black"/>
<path d="M9.80249 14.9549V16.2012H11.0279V14.9549H9.80249Z" fill="black"/>
<path d="M11.0278 14.9549V16.2012H12.2532V14.9549H11.0278Z" fill="black"/>
<path d="M12.2532 14.9544V16.2007H13.4785V14.9544H12.2532Z" fill="black"/>
<path d="M7.35156 0.000576973V1.24683H8.57692V0.000576973H7.35156Z" fill="black"/>
<path d="M8.57715 0.000576973V1.24683H9.80251V0.000576973H8.57715Z" fill="black"/>
<path d="M9.80249 0.000576973V1.24683H11.0278V0.000576973H9.80249Z" fill="black"/>
<path d="M11.0278 0.000576973V1.24683H12.2532V0.000576973H11.0278Z" fill="black"/>
<path d="M12.2532 8.86917e-05V1.24634H13.4785V8.86917e-05H12.2532Z" fill="black"/>
<path d="M2.4507 13.7083H1.22534V14.9545H2.4507V13.7083Z" fill="black"/>
<path d="M2.4507 14.9546H1.22534V16.2008H2.4507V14.9546Z" fill="black"/>
<path d="M19.6052 13.7083H18.3799V14.9545H19.6052V13.7083Z" fill="black"/>
<path d="M19.6052 14.9546H18.3799V16.2008H19.6052V14.9546Z" fill="black"/>
<path d="M3.67604 16.2007H2.45068V17.4469H3.67604V16.2007Z" fill="black"/>
<path d="M4.90138 17.447H3.67603V18.6933H4.90138V17.447Z" fill="black"/>
<path d="M6.12673 12.4624H4.90137V13.7087H6.12673V12.4624Z" fill="black"/>
<path d="M18.3799 16.2007H17.1545V17.4469H18.3799V16.2007Z" fill="black"/>
<path d="M17.1546 17.447H15.9292V18.6933H17.1546V17.447Z" fill="black"/>
<path d="M15.9292 12.4624H14.7039V13.7087H15.9292V12.4624Z" fill="black"/>
<path d="M6.12673 18.6934H4.90137V19.9396H6.12673V18.6934Z" fill="black"/>
<path d="M7.35207 18.6934H6.12671V19.9396H7.35207V18.6934Z" fill="black"/>
<path d="M7.35207 13.7083H6.12671V14.9545H7.35207V13.7083Z" fill="black"/>
<path d="M14.7039 18.6934H13.4785V19.9396H14.7039V18.6934Z" fill="black"/>
<path d="M14.7039 13.7083H13.4785V14.9545H14.7039V13.7083Z" fill="black"/>
<path d="M15.9292 18.6934H14.7039V19.9396H15.9292V18.6934Z" fill="black"/>
<path d="M6.12673 1.24634H4.90137V2.49259H6.12673V1.24634Z" fill="black"/>
<path d="M7.35207 1.24634H6.12671V2.49259H7.35207V1.24634Z" fill="black"/>
<path d="M14.7039 1.24634H13.4785V2.49259H14.7039V1.24634Z" fill="black"/>
<path d="M15.9292 1.24634H14.7039V2.49259H15.9292V1.24634Z" fill="black"/>
</svg>
