<svg width="22" height="22" viewBox="0 0 22 22" fill="none" xmlns="http://www.w3.org/2000/svg">
<path d="M2.58469 6.40712L1.08469 8.90712L1.58469 13.9071L6.08469 19.9071H7.08469L8.08469 20.4071H13.5847L14.5847 19.9071H16.0847L19.5847 15.4071L20.5847 13.4071V8.40712L19.5847 7.40712V5.90712L16.5847 2.90712L13.5847 1.40712H8.08469L2.58469 5.40712V6.40712Z" fill="#FFFF00"/>
<path d="M4.26026 4.14588H3.03491V5.39213H4.26026V4.14588Z" fill="black"/>
<path d="M18.9641 4.14588H17.7388V5.39213H18.9641V4.14588Z" fill="black"/>
<path d="M5.48566 2.89962H4.2603V4.14587H5.48566V2.89962Z" fill="black"/>
<path d="M7.9364 6.63837H6.71104V7.88462H7.9364V6.63837Z" fill="black"/>
<path d="M9.16173 5.39212H7.93638V6.63837H9.16173V5.39212Z" fill="black"/>
<path d="M6.711 5.39212H5.48564V6.63837H6.711V5.39212Z" fill="black"/>
<path d="M9.16173 7.88414H7.93638V9.13039H9.16173V7.88414Z" fill="black"/>
<path d="M6.711 7.88414H5.48564V9.13039H6.711V7.88414Z" fill="black"/>
<path d="M14.6756 6.63837H13.4502V7.88462H14.6756V6.63837Z" fill="black"/>
<path d="M15.901 5.39212H14.6756V6.63837H15.901V5.39212Z" fill="black"/>
<path d="M13.4502 5.39212H12.2249V6.63837H13.4502V5.39212Z" fill="black"/>
<path d="M15.901 7.88414H14.6756V9.13039H15.901V7.88414Z" fill="black"/>
<path d="M13.4502 7.88414H12.2249V9.13039H13.4502V7.88414Z" fill="black"/>
<path d="M17.7387 2.89962H16.5134V4.14587H17.7387V2.89962Z" fill="black"/>
<path d="M3.03539 5.39212H1.81003V6.63837H3.03539V5.39212Z" fill="black"/>
<path d="M3.03539 6.63837H1.81003V7.88462H3.03539V6.63837Z" fill="black"/>
<path d="M20.1895 5.39212H18.9641V6.63837H20.1895V5.39212Z" fill="black"/>
<path d="M20.1895 6.63837H18.9641V7.88462H20.1895V6.63837Z" fill="black"/>
<path d="M1.81004 7.88414H0.584686V9.13039H1.81004V7.88414Z" fill="black"/>
<path d="M1.81004 9.13039H0.584686V10.3766H1.81004V9.13039Z" fill="black"/>
<path d="M1.81004 10.3766H0.584686V11.6229H1.81004V10.3766Z" fill="black"/>
<path d="M1.81004 11.6229H0.584686V12.8691H1.81004V11.6229Z" fill="black"/>
<path d="M1.81004 12.8691H0.584686V14.1154H1.81004V12.8691Z" fill="black"/>
<path d="M21.4149 7.88414H20.1895V9.13039H21.4149V7.88414Z" fill="black"/>
<path d="M21.4149 9.13039H20.1895V10.3766H21.4149V9.13039Z" fill="black"/>
<path d="M21.4149 10.3766H20.1895V11.6229H21.4149V10.3766Z" fill="black"/>
<path d="M21.4149 11.6229H20.1895V12.8691H21.4149V11.6229Z" fill="black"/>
<path d="M21.4149 12.8691H20.1895V14.1154H21.4149V12.8691Z" fill="black"/>
<path d="M7.93684 20.3466V21.5929H9.1622V20.3466H7.93684Z" fill="black"/>
<path d="M9.16172 20.3466V21.5929H10.3871V20.3466H9.16172Z" fill="black"/>
<path d="M10.3871 20.3461V21.5924H11.6124V20.3461H10.3871Z" fill="black"/>
<path d="M11.6124 20.3462V21.5924H12.8378V20.3462H11.6124Z" fill="black"/>
<path d="M12.8378 20.3461V21.5924H14.0632V20.3461H12.8378Z" fill="black"/>
<path d="M14.0631 14.1154V12.8691H12.8378V14.1154H14.0631Z" fill="black"/>
<path d="M12.8378 14.1154V12.8691H11.6124V14.1154H12.8378Z" fill="black"/>
<path d="M11.6124 14.1154V12.8691H10.387V14.1154H11.6124Z" fill="black"/>
<path d="M10.3871 14.1154V12.8691H9.1617V14.1154H10.3871Z" fill="black"/>
<path d="M9.16172 14.1154V12.8691H7.93636V14.1154H9.16172Z" fill="black"/>
<path d="M7.93638 0.407131V1.65338H9.16174V0.407131H7.93638Z" fill="black"/>
<path d="M9.16172 0.407129V1.65338H10.3871V0.407129H9.16172Z" fill="black"/>
<path d="M10.3871 0.407125V1.65338H11.6124V0.407125H10.3871Z" fill="black"/>
<path d="M11.6124 0.407131V1.65338H12.8378V0.407131H11.6124Z" fill="black"/>
<path d="M12.8378 0.407125V1.65338H14.0632V0.407125H12.8378Z" fill="black"/>
<path d="M3.03539 14.1154H1.81003V15.3616H3.03539V14.1154Z" fill="black"/>
<path d="M3.03539 15.3616H1.81003V16.6079H3.03539V15.3616Z" fill="black"/>
<path d="M20.1895 14.1154H18.9641V15.3616H20.1895V14.1154Z" fill="black"/>
<path d="M20.1895 15.3616H18.9641V16.6079H20.1895V15.3616Z" fill="black"/>
<path d="M4.26026 16.6079H3.03491V17.8541H4.26026V16.6079Z" fill="black"/>
<path d="M5.48566 17.8541H4.2603V19.1004H5.48566V17.8541Z" fill="black"/>
<path d="M15.288 16.6079H16.5134V15.3616H15.288V16.6079Z" fill="black"/>
<path d="M18.9641 16.6079H17.7388V17.8541H18.9641V16.6079Z" fill="black"/>
<path d="M17.7387 17.8541H16.5134V19.1004H17.7387V17.8541Z" fill="black"/>
<path d="M5.48568 16.6079H6.71104V15.3616H5.48568V16.6079Z" fill="black"/>
<path d="M6.711 19.1004H5.48564V20.3466H6.711V19.1004Z" fill="black"/>
<path d="M7.9364 19.1004H6.71104V20.3466H7.9364V19.1004Z" fill="black"/>
<path d="M14.0627 15.3616H15.288V14.1154H14.0627V15.3616Z" fill="black"/>
<path d="M15.2885 19.1004H14.0631V20.3466H15.2885V19.1004Z" fill="black"/>
<path d="M6.71102 15.3616H7.93638V14.1154H6.71102V15.3616Z" fill="black"/>
<path d="M16.5138 19.1004H15.2885V20.3466H16.5138V19.1004Z" fill="black"/>
<path d="M6.711 1.65338H5.48564V2.89963H6.711V1.65338Z" fill="black"/>
<path d="M7.9364 1.65338H6.71104V2.89963H7.9364V1.65338Z" fill="black"/>
<path d="M15.2885 1.65338H14.0631V2.89963H15.2885V1.65338Z" fill="black"/>
<path d="M16.5138 1.65338H15.2885V2.89963H16.5138V1.65338Z" fill="black"/>
</svg>
